<svg id="Capa_1" enable-background="new 0 0 511.834 511.834" height="512" viewBox="0 0 511.834 511.834" width="512" xmlns="http://www.w3.org/2000/svg"><g><path d="m139.81 116.107c-34.41 0-62.404 27.995-62.404 62.405s27.994 62.405 62.404 62.405 62.405-27.995 62.405-62.405-27.995-62.405-62.405-62.405zm15.564 77.405h-31.128v-30h31.128z"/><path d="m279.619 348.322v-169.81c0-77.091-62.719-139.81-139.81-139.81s-139.809 62.719-139.809 139.81v294.619h156.905c67.665 0 122.714-55.049 122.714-122.714zm-139.809-77.405c-50.952 0-92.404-41.453-92.404-92.405s41.452-92.405 92.404-92.405 92.405 41.453 92.405 92.405-41.453 92.405-92.405 92.405z"/><path d="m309.619 193.515v124.008c65.133-6.98 117.019-58.875 124-124.008z"/><path d="m511.834 178.512c0-77.091-62.719-139.81-139.81-139.81h-135.955c40.522 27.986 68.334 73.109 72.88 124.813h140.479c23.323-.001 45.327 8.581 62.405 24.251v-9.254z"/></g></svg>